<?xml version="1.0" encoding="UTF-8"?>
<svg width="528px" height="450px" viewBox="0 0 528 450" version="1.1" xmlns="http://www.w3.org/2000/svg" xmlns:xlink="http://www.w3.org/1999/xlink">
    <!-- Generator: Sketch 53.2 (72643) - https://sketchapp.com -->
    <title>hero-duo</title>
    <desc>Created with Sketch.</desc>
    <g id="hero-duo" stroke="none" stroke-width="1" fill="none" fill-rule="evenodd">
        <g transform="translate(26.000000, 0.000000)">
            <g id="Group-17" transform="translate(156.421438, 43.984962)">
                <path d="M10.9086608,0 L152.18819,1.77635684e-15 C158.212877,6.69639796e-16 163.096851,4.88397378 163.096851,10.9086608 L163.096851,277.620101 L0,277.620101 L0,10.9086608 C-7.37811362e-16,4.88397378 4.88397378,2.88307388e-15 10.9086608,1.77635684e-15 Z" id="Rectangle" fill="#3D60B7"></path>
                <path d="M57.4789351,265.278026 C50.8596859,261.905316 45.0508532,257.170205 40.4219826,251.442211 C32.0155882,254.982579 22.6263588,256.084626 13.363487,254.277631 C9.22672265,253.47064 7.08136848,248.842997 9.12661138,245.138467 L28.7754993,209.548682 L28.7754993,163.515898 C28.7754993,153.753742 36.6898829,145.84001 46.4527552,145.84001 C48.8240858,145.84001 51.1711835,146.317076 53.3543118,147.24276 C67.0424415,153.047118 76.4223066,155.949347 81.4939072,155.949347 C86.5319447,155.949347 95.7624685,153.085476 109.185518,147.357637 C118.164932,143.525997 128.55054,147.698539 132.382477,156.677258 C133.318533,158.870508 133.801033,161.230531 133.801033,163.615079 L133.801033,209.157812 L153.665724,245.138467 C155.711,248.842997 153.565555,253.47064 149.428794,254.277631 C140.106815,256.096157 130.656858,254.968396 122.209493,251.374138 C117.603842,257.092773 111.823848,261.82593 105.235734,265.207407 C106.962743,266.43816 108.088955,268.457295 108.088955,270.739447 C108.088955,274.488702 105.049326,277.528069 101.299782,277.528069 L90.7545602,277.528069 C87.0605818,277.528069 84.0556531,274.578117 83.9674019,270.905657 C83.0799924,270.950248 82.1867767,270.972811 81.2882906,270.972811 C80.4690913,270.972811 79.6542731,270.954054 78.8442423,270.916947 C78.7501113,274.584161 75.7475569,277.528069 72.0573645,277.528069 L61.5121427,277.528069 C57.7625983,277.528069 54.7229992,274.488702 54.7229992,270.739447 C54.7229992,268.500424 55.8070353,266.514571 57.4789351,265.278026 Z" id="Body" fill="#1E2739"></path>
                <g id="Face" transform="translate(41.136459, 171.020851)">
                    <g id="Group-14" transform="translate(29.518220, 25.001145)">
                        <path d="M10.7836004,0.18731068 C14.8471029,0.18731068 18.1412259,3.48117881 18.1412259,7.54436698 L18.1412259,9.94265874 C18.1412259,14.0058469 14.8471029,17.299715 10.7836004,17.299715 C6.72008807,17.299715 3.42597491,14.0058469 3.42597491,9.94265874 L3.42597491,7.54436698 C3.42597491,3.48117881 6.72008807,0.18731068 10.7836004,0.18731068 Z" id="Clip-47" fill="#F49000"></path>
                        <path d="M0.542918277,8.03541293 C1.41514536,3.51531806 5.73728249,0.18731068 10.8395421,0.18731068 C15.6173164,0.18731068 19.8671964,3.59406395 20.7242951,8.03541293 L20.7242951,8.44846836 C20.7242951,8.76966175 20.6206921,8.89096398 20.312434,8.86152379 L10.8395421,10.5137553 C10.6495445,10.5150306 10.6176787,10.5150306 10.4276712,10.5137553 L0.954779305,8.86152379 C0.646521241,8.89096398 0.542918277,8.76966175 0.542918277,8.44846836 L0.542918277,8.03541293 Z" id="Clip-50" fill="#FFC200"></path>
                        <path d="M8.91306043,4.84677499 C8.1639274,5.14729623 7.31275834,4.78426234 7.01192113,4.03591609 C6.71108392,3.28756984 7.0744995,2.43729474 7.82363254,2.1367735 C9.5801322,1.43213835 11.4566139,1.43213835 13.3870564,2.11544473 C14.1479814,2.38478448 14.5462604,3.21933119 14.2766375,3.97945699 C14.0070146,4.73958278 13.1715905,5.13744349 12.4106655,4.86810375 C11.1319944,4.41550073 9.98813183,4.41550073 8.91306043,4.84677499 Z" id="Path" fill="#FFDE00" fill-rule="nonzero"></path>
                    </g>
                    <g id="Group-46" transform="translate(51.066247, 0.818057)">
                        <path d="M14.4153028,1.95399252e-13 C22.3766412,1.95399252e-13 28.8305369,6.45339638 28.8305369,14.4141189 L28.8305369,23.1740921 C28.8305369,31.1348147 22.3766412,37.5882503 14.4153028,37.5882503 C6.45394472,37.5882503 -3.55271368e-14,31.1348147 -3.55271368e-14,23.1740921 L-3.55271368e-14,14.4141189 C-3.55271368e-14,6.45339638 6.45394472,1.95399252e-13 14.4153028,1.95399252e-13 Z" id="Clip-41" fill="#FFFFFF"></path>
                        <path d="M5.35424242,16.6895331 C5.45205107,16.696023 5.55073053,16.6993195 5.65017801,16.6993195 C8.08828149,16.6993195 10.0647533,14.7179385 10.0647533,12.2737452 C10.0647533,11.0563126 9.57443906,9.95372403 8.78098332,9.15359357 C9.77400354,8.58568812 10.9241028,8.26110863 12.1500181,8.26110863 C15.9032219,8.26110863 18.9457741,11.3034255 18.9457741,15.056388 L18.9457741,22.5318427 C18.9457741,26.2847561 15.9032219,29.3270926 12.1500181,29.3270926 C8.39681426,29.3270926 5.35424242,26.2847561 5.35424242,22.5318427 L5.35424242,16.6895331 Z" id="Combined-Shape" fill="#1E2739"></path>
                    </g>
                    <g id="Group-44" transform="translate(0.406860, 0.818057)">
                        <path d="M14.4152733,1.88293825e-13 C22.3766118,1.88293825e-13 28.8305467,6.45339638 28.8305467,14.4141189 L28.8305467,23.1740921 C28.8305467,31.1348147 22.3766118,37.5882503 14.4152733,37.5882503 C6.45393491,37.5882503 1.95399252e-14,31.1348147 1.95399252e-14,23.1740921 L1.95399252e-14,14.4141189 C1.95399252e-14,6.45339638 6.45393491,1.88293825e-13 14.4152733,1.88293825e-13 Z" id="Clip-38" fill="#FFFFFF"></path>
                        <path d="M9.88475297,16.5557314 C10.2423154,16.6494346 10.6175518,16.6993195 11.0044106,16.6993195 C13.4425141,16.6993195 15.4189859,14.7179385 15.4189859,12.2737452 C15.4189859,10.9116343 14.8052104,9.69328528 13.8398065,8.88146331 C14.7041626,8.48322603 15.6664042,8.26110863 16.6805286,8.26110863 C20.4337324,8.26110863 23.4763043,11.3034255 23.4763043,15.056388 L23.4763043,22.5318427 C23.4763043,26.2847561 20.4337324,29.3270926 16.6805286,29.3270926 C12.9273248,29.3270926 9.88475297,26.2847561 9.88475297,22.5318427 L9.88475297,16.5557314 Z" id="Combined-Shape" fill="#1E2739"></path>
                    </g>
                </g>
            </g>
            <path d="M201.733226,96.2889622 L207.543299,96.3023884 C208.067735,96.3036003 208.492572,96.7284382 208.493784,97.2528741 L208.507211,103.062947 C208.508426,103.589102 208.082879,104.01662 207.556725,104.017836 C207.555257,104.017839 207.553789,104.017839 207.552322,104.017836 L201.742249,104.004409 C201.217813,104.003198 200.792975,103.57836 200.791763,103.053924 L200.778337,97.2438509 C200.777121,96.7176963 201.202668,96.2901781 201.728823,96.2889622 C201.73029,96.2889588 201.731758,96.2889588 201.733226,96.2889622 Z" id="Rectangle" fill="#FFFFFF" opacity="0.7" transform="translate(204.642774, 100.153399) rotate(-45.000000) translate(-204.642774, -100.153399) "></path>
            <g id="Group-49" transform="translate(0.000000, 320.080981)">
                <polygon id="Rectangle" fill="#3B5798" points="156.421438 1 319.516857 1 475.938295 129.120301 -4.56362414e-13 129.120301"></polygon>
                <path d="M217.44042,0.0977443609 L227.924912,0.0977443609 C231.652863,0.0977443609 234.674967,4.99484913 234.674967,11.0357404 C234.674967,11.6248277 234.646228,12.2030384 234.590898,12.7668917 C235.826632,12.6550126 237.07157,12.5983166 238.32477,12.5983166 C239.223573,12.5983166 240.118128,12.6274803 241.008084,12.6852495 C240.957859,12.1472672 240.931824,11.5964305 240.931824,11.0357404 C240.931824,4.99484913 243.953932,0.0977443609 247.681887,0.0977443609 L258.166392,0.0977443609 C261.894347,0.0977443609 264.916445,4.99484913 264.916445,11.0357404 C264.916445,14.6354798 263.843324,17.8290739 262.187192,19.8223266 C278.886736,30.3593973 292.2174,51.6293648 298.872564,78.3318608 C306.461252,75.640021 314.42244,75.3762294 322.309652,77.8444339 C327.432751,79.447631 330.089625,88.6410726 327.556732,96.0006242 L303.500399,165.898357 L303.500399,209.48233 L173.149201,209.48233 L173.149201,168.92831 L148.050063,96.0006242 C145.51713,88.6410726 148.174116,79.447631 153.297209,77.8444339 C161.516094,75.2724355 169.815309,75.6670384 177.689647,78.6843142 C184.227497,52.1715769 197.337147,30.9724769 213.799265,20.2475035 C211.929328,18.3026651 210.690346,14.9036603 210.690346,11.0357404 C210.690346,4.99484913 213.712469,0.0977443609 217.44042,0.0977443609 Z" id="Combined-Shape" fill="#1E2739" opacity="0.7"></path>
            </g>
            <rect id="Rectangle-Copy" fill="#2C4889" x="63.7298578" y="171.428571" width="25.943128" height="29.3233083" rx="12.971564"></rect>
            <path d="M267.646,121.505103 L274.496883,121.520934 C275.021319,121.522146 275.446157,121.946984 275.447369,122.47142 L275.4632,129.322303 C275.464416,129.848457 275.038869,130.275976 274.512714,130.277191 C274.511247,130.277195 274.509779,130.277195 274.508311,130.277191 L267.657428,130.26136 C267.132993,130.260148 266.708155,129.83531 266.706943,129.310874 L266.691111,122.459991 C266.689896,121.933837 267.115442,121.506319 267.641597,121.505103 C267.643065,121.505099 267.644532,121.505099 267.646,121.505103 Z" id="Rectangle-Copy-5" fill="#FFFFFF" transform="translate(271.077156, 125.891147) rotate(-45.000000) translate(-271.077156, -125.891147) "></path>
            <path d="M235.934219,76.1947813 L240.103307,76.2044155 C240.677706,76.2057428 241.143017,76.6710546 241.144345,77.2454531 L241.153979,81.4145411 C241.155311,81.990822 240.689222,82.4590696 240.112941,82.4604013 C240.111334,82.460405 240.109726,82.460405 240.108119,82.4604013 L235.939031,82.4507671 C235.364632,82.4494398 234.89932,81.984128 234.897993,81.4097295 L234.888359,77.2406415 C234.887027,76.6643606 235.353116,76.196113 235.929397,76.1947813 C235.931004,76.1947776 235.932612,76.1947776 235.934219,76.1947813 Z" id="Rectangle-Copy-4" fill="#FFFFFF" opacity="0.5" transform="translate(238.021169, 79.327591) rotate(-45.000000) translate(-238.021169, -79.327591) "></path>
            <path d="M83.7990158,3.92908494 L102.134322,0.712770973 C105.510133,0.120598301 108.726819,2.37718288 109.318992,5.7529937 C109.381095,6.10702427 109.412322,6.46578095 109.412322,6.82521717 L109.412322,355.937513 C109.412322,359.364868 106.633902,362.143289 103.206546,362.143289 C103.061622,362.143289 102.916744,362.138212 102.772176,362.128069 L84.6108292,360.853749 C80.4734501,360.563444 77.2654028,357.122411 77.2654028,352.97486 L77.2654028,11.7085619 C77.2654028,7.87295246 80.021091,4.591795 83.7990158,3.92908494 Z" id="Rectangle" fill="#21386C"></path>
            <path d="M100.181606,40.6345018 L143.678841,2.61471943 C147.197749,-0.461064894 152.543803,-0.101842245 155.619588,3.41706567 C156.96757,4.95924999 157.710464,6.93800088 157.710464,8.98626584 L157.710464,353.115941 C157.710464,357.789607 153.921708,361.578363 149.248041,361.578363 C147.328672,361.578363 145.466318,360.925879 143.966631,359.727998 L95.9382135,321.365087 L95.9382135,49.9794365 C95.9382135,46.3981356 97.485165,42.9913898 100.181606,40.6345018 Z" id="Rectangle-Copy-3" fill="#2C4889" transform="translate(126.824339, 181.050892) scale(-1, 1) translate(-126.824339, -181.050892) "></path>
            <path d="M111.348409,26.8677223 L123.875899,36.4540407 C124.712887,37.0945232 125.203791,38.0883174 125.203791,39.1422469 L125.203791,205.842092 C125.203791,206.653631 124.627751,207.35095 123.830802,207.504147 L109.732359,210.214279 C108.814432,210.390731 107.927261,209.789647 107.750809,208.87172 C107.730568,208.766425 107.720379,208.659446 107.720379,208.552224 L107.720379,28.6598597 C107.720379,27.4135486 108.730714,26.4032137 109.977025,26.4032137 C110.472766,26.4032137 110.954712,26.5664562 111.348409,26.8677223 Z" id="Rectangle" fill="#233C74"></path>
            <path d="M110.23244,230.375877 L123.074853,226.948173 C123.977972,226.707126 124.905501,227.243841 125.146548,228.14696 C125.184547,228.289332 125.203791,228.436057 125.203791,228.583414 L125.203791,322.26418 C125.203791,323.336866 124.695353,324.346064 123.833309,324.984448 L110.420107,334.917554 C109.668926,335.47384 108.609015,335.315845 108.05273,334.564664 C107.836886,334.273198 107.720379,333.920105 107.720379,333.55742 L107.720379,233.646358 C107.720379,232.113076 108.751017,230.771276 110.23244,230.375877 Z" id="Rectangle-Copy-6" fill="#233C74"></path>
            <path d="M138.42338,46.2415805 L147.004943,52.8379239 C147.838497,53.4786475 148.327014,54.4703144 148.327014,55.5216656 L148.327014,201.067351 C148.327014,201.869056 147.764535,202.560777 146.979677,202.724269 L136.829101,204.838705 C135.914011,205.029325 135.017656,204.442025 134.827036,203.526935 C134.803387,203.413408 134.791469,203.297751 134.791469,203.181787 L134.791469,48.0307417 C134.791469,46.7844305 135.801804,45.7740957 137.048115,45.7740957 C137.54553,45.7740957 138.029009,45.9384414 138.42338,46.2415805 Z" id="Rectangle-Copy-2" fill="#233C74"></path>
            <path d="M137.110742,223.700811 L146.101681,220.718518 C146.988881,220.424234 147.946663,220.904887 148.240947,221.792087 C148.297956,221.963955 148.327014,222.143859 148.327014,222.324935 L148.327014,306.708083 C148.327014,307.806056 147.794462,308.835823 146.898451,309.470417 L137.462157,316.153615 C136.699359,316.693861 135.643033,316.513448 135.102787,315.750651 C134.900247,315.464676 134.791469,315.122882 134.791469,314.772448 L134.791469,226.913645 C134.791469,225.454819 135.7261,224.160096 137.110742,223.700811 Z" id="Rectangle-Copy-7" fill="#233C74"></path>
        </g>
    </g>
</svg>